<svg width="26" height="25" viewBox="0 0 26 25" fill="none" xmlns="http://www.w3.org/2000/svg">
<g clip-path="url(#clip0_1_886)">
<path d="M15.036 3V8.58699H20.554L15.036 3ZM13.6565 8.58699V3H6.06926C4.92642 3 4 3.938 4 5.09512V23.2528C4 24.4095 4.92642 25.348 6.06926 25.348H18.4848C19.6276 25.348 20.554 24.41 20.554 23.2528V9.98374H15.0748C14.273 9.98374 13.6565 9.35957 13.6565 8.58699ZM6.75901 6.14268C6.75901 5.95194 6.9155 5.7935 7.10388 5.7935H10.5526C10.7423 5.7935 10.8975 5.95194 10.8975 6.14268V6.84106C10.8975 7.03224 10.7423 7.19024 10.5526 7.19024H7.10388C6.9155 7.19024 6.75901 7.03224 6.75901 6.84106V6.14268ZM6.75901 8.93618C6.75901 8.74413 6.9155 8.58699 7.10388 8.58699H10.5526C10.7423 8.58699 10.8975 8.74413 10.8975 8.93618V9.63455C10.8975 9.8266 10.7423 9.98374 10.5526 9.98374H7.10388C6.9155 9.98374 6.75901 9.8266 6.75901 9.63455V8.93618ZM17.1053 19.761C17.4879 19.761 17.795 20.072 17.795 20.4593C17.795 20.8467 17.489 21.1577 17.1053 21.1577H15.0684C14.3622 21.1577 13.7212 20.7594 13.403 20.1154C13.2791 19.859 13.0582 19.8317 12.9668 19.8317C12.8754 19.8317 12.6542 19.859 12.5357 20.099L12.2016 20.7703C12.0873 21.0093 11.8071 21.1577 11.5873 21.1577H11.5399C11.2596 21.1359 11.0225 20.9504 10.9363 20.6776L10.2078 18.4777L9.75081 19.8701C9.49646 20.6383 8.78515 21.1577 7.98246 21.1577H7.44876C7.06638 21.1577 6.75901 20.8478 6.75901 20.4593C6.75901 20.0709 7.06638 19.761 7.44876 19.761H7.98246C8.19261 19.761 8.37583 19.6246 8.44028 19.4282L9.22703 17.0436C9.36713 16.6139 9.75943 16.3258 10.2078 16.3258C10.6561 16.3258 11.0484 16.615 11.1885 17.046L11.7869 18.8631C12.6383 18.1538 14.1204 18.4376 14.6321 19.4794C14.7183 19.654 14.8908 19.7632 15.0684 19.7632H17.1053V19.761Z" fill="#805AD5"/>
</g>
<defs>
<clipPath id="clip0_1_886">
<rect width="25.0049" height="25.0049" fill="white"/>
</clipPath>
</defs>
</svg>
