<svg width="26" height="25" viewBox="0 0 26 25" fill="none" xmlns="http://www.w3.org/2000/svg">
<path d="M20.0504 4.29297H12.7834L11.1424 7.57486H2V20.7024H21.6914V4.29297H20.0504ZM20.0504 7.57486H13.6429L14.5024 5.93391H20.0504V7.57486Z" fill="#AA84FF"/>
<path d="M14.1903 9.76268V10.9348H11.0647C10.6506 10.936 10.2538 11.1011 9.96095 11.3939C9.66813 11.6867 9.50308 12.0835 9.50185 12.4976V15.6232H8.32974C7.81164 15.6232 7.31476 15.829 6.9484 16.1954C6.58205 16.5617 6.37624 17.0586 6.37624 17.5767C6.37624 18.0948 6.58205 18.5917 6.9484 18.958C7.31476 19.3244 7.81164 19.5302 8.32974 19.5302H9.50185V22.6558C9.50308 23.0699 9.66813 23.4667 9.96095 23.7595C10.2538 24.0523 10.6506 24.2174 11.0647 24.2186H14.034V23.0465C14.034 22.487 14.2563 21.9503 14.6519 21.5547C15.0476 21.159 15.5842 20.9367 16.1438 20.9367C16.7033 20.9367 17.24 21.159 17.6356 21.5547C18.0313 21.9503 18.2536 22.487 18.2536 23.0465V24.2186H21.2229C21.637 24.2174 22.0338 24.0523 22.3266 23.7595C22.6194 23.4667 22.7845 23.0699 22.7857 22.6558V19.6865H21.6136C21.054 19.6865 20.5174 19.4642 20.1217 19.0686C19.7261 18.6729 19.5038 18.1363 19.5038 17.5767C19.5038 17.0172 19.7261 16.4805 20.1217 16.0849C20.5174 15.6892 21.054 15.4669 21.6136 15.4669H22.7857V12.4976C22.7845 12.0835 22.6194 11.6867 22.3266 11.3939C22.0338 11.1011 21.637 10.936 21.2229 10.9348H18.0973V9.76268C18.0973 9.24458 17.8915 8.7477 17.5251 8.38134C17.1588 8.01499 16.6619 7.80917 16.1438 7.80917C15.6257 7.80917 15.1288 8.01499 14.7624 8.38134C14.3961 8.7477 14.1903 9.24458 14.1903 9.76268Z" fill="#7F56DC"/>
</svg>
