<svg width="26" height="25" viewBox="0 0 26 25" fill="none" xmlns="http://www.w3.org/2000/svg">
<path d="M4.99962 9.50049H0.973835C0.511244 9.50049 0.048654 9.90057 0.111166 10.5507L2.06155 23.0406C2.06155 23.0406 4.3745 13.8388 4.82459 11.6259C4.96211 10.9633 5.58724 10.7507 6.04983 10.7507H12.5011C12.5011 10.7507 11.6259 8.15022 11.5384 7.86267C11.3884 7.31256 11.1133 7 10.5632 7H6.4249C5.97481 7 5.54973 7.28756 5.42471 7.80016C5.31218 8.30025 4.99962 9.50049 4.99962 9.50049ZM11.1008 9.50049H6.09984C6.09984 9.50049 6.62494 8.25024 7.18755 8.25024H9.85057C10.4507 8.25024 11.1008 9.50049 11.1008 9.50049ZM3.3368 23.5657C2.94922 24.1534 2.38661 24.5034 1.76149 24.5034H21.4278C22.103 24.5034 22.5781 24.1158 22.7156 23.4657C23.2657 20.7277 24.816 12.9137 24.816 12.9137C24.9035 12.2885 24.4409 12.001 24.0408 12.001H20.0026V10.1631C20.0026 9.96308 19.6775 9.50049 19.1774 9.50049H14.4765C13.8263 9.50049 13.3888 10.2256 13.3888 10.2256L12.5011 12.001H6.98751C6.58743 12.001 6.19986 12.2385 6.12484 12.6261C6.12484 12.6261 4.13695 21.0027 3.97442 21.7904C3.8869 22.253 3.69937 23.0281 3.3368 23.5657ZM19.2274 12.001H13.7513C13.7513 12.001 14.4765 10.7507 15.1641 10.7507H18.0272C18.9148 10.7507 19.2274 12.001 19.2274 12.001Z" fill="#805AD5"/>
</svg>
