<svg width="26" height="25" viewBox="0 0 26 25" fill="none" xmlns="http://www.w3.org/2000/svg">
<path d="M20.7537 8H4.08374C2.92726 8 2.01042 8.92726 2.01042 10.0837L2 22.5862C2 23.7427 2.92726 24.6699 4.08374 24.6699H20.7537C21.9101 24.6699 22.8374 23.7427 22.8374 22.5862V10.0837C22.8374 8.92726 21.9101 8 20.7537 8ZM11.3768 14.2512H8.25122V15.2931H11.3768C11.9499 15.2931 12.4187 15.7619 12.4187 16.335V19.4606C12.4187 20.0336 11.9499 20.5024 11.3768 20.5024H10.335C10.335 21.0755 9.86612 21.5443 9.29309 21.5443C8.72006 21.5443 8.25122 21.0755 8.25122 20.5024H7.20935C6.63632 20.5024 6.16748 20.0336 6.16748 19.4606C6.16748 18.8875 6.63632 18.4187 7.20935 18.4187H10.335V17.3768H7.20935C6.63632 17.3768 6.16748 16.908 6.16748 16.335V13.2094C6.16748 12.6363 6.63632 12.1675 7.20935 12.1675H8.25122C8.25122 11.5945 8.72006 11.1256 9.29309 11.1256C9.86612 11.1256 10.335 11.5945 10.335 12.1675H11.3768C11.9499 12.1675 12.4187 12.6363 12.4187 13.2094C12.4187 13.7824 11.9499 14.2512 11.3768 14.2512ZM16.2215 20.3983L14.5024 18.6792H18.6699L16.9508 20.3983C16.7529 20.5962 16.4195 20.5962 16.2215 20.3983ZM14.5024 14.2512L16.2215 12.5321C16.4299 12.3238 16.7529 12.3238 16.9613 12.5321L18.6699 14.2512H14.5024Z" fill="#805AD5"/>
</svg>
