<svg width="26" height="25" viewBox="0 0 26 25" fill="none" xmlns="http://www.w3.org/2000/svg">
<path d="M12.3509 10.9496C11.6208 10.9496 10.9371 11.2328 10.4194 11.7505C9.90416 12.2682 9.61846 12.9519 9.61846 13.682C9.61846 14.4121 9.90416 15.0959 10.4194 15.6136C10.9371 16.1288 11.6208 16.4145 12.3509 16.4145C13.081 16.4145 13.7648 16.1288 14.2825 15.6136C14.7977 15.0959 15.0834 14.4121 15.0834 13.682C15.0834 12.9519 14.7977 12.2682 14.2825 11.7505C14.0296 11.4957 13.7286 11.2937 13.3971 11.1562C13.0655 11.0187 12.7099 10.9485 12.3509 10.9496ZM22.4188 16.7002L20.8218 15.3352C20.8975 14.8712 20.9366 14.3975 20.9366 13.9262C20.9366 13.4549 20.8975 12.9788 20.8218 12.5172L22.4188 11.1522C22.5394 11.049 22.6258 10.9114 22.6664 10.7579C22.7069 10.6043 22.6998 10.4421 22.6459 10.2927L22.6239 10.2292C22.1844 9.00017 21.5259 7.86095 20.6802 6.86672L20.6362 6.81544C20.5335 6.6947 20.3967 6.6079 20.2437 6.56649C20.0907 6.52508 19.9287 6.531 19.7791 6.58346L17.7963 7.28917C17.0638 6.68847 16.2482 6.21474 15.3642 5.88509L14.9808 3.81193C14.9519 3.65575 14.8761 3.51207 14.7636 3.39998C14.6511 3.28788 14.5071 3.21268 14.3508 3.18436L14.2849 3.17215C13.0151 2.94262 11.677 2.94262 10.4072 3.17215L10.3413 3.18436C10.185 3.21268 10.041 3.28788 9.92846 3.39998C9.81593 3.51207 9.74017 3.65575 9.71125 3.81193L9.32543 5.89485C8.44984 6.22714 7.63417 6.69971 6.91041 7.29405L4.91295 6.58346C4.76342 6.53058 4.60134 6.52445 4.44825 6.56588C4.29515 6.60732 4.15829 6.69436 4.05585 6.81544L4.01189 6.86672C3.16772 7.86201 2.50933 9.00095 2.06816 10.2292L2.04618 10.2927C1.93629 10.5979 2.02664 10.9398 2.27327 11.1522L3.8898 12.5319C3.8141 12.991 3.77747 13.4598 3.77747 13.9238C3.77747 14.3926 3.8141 14.8615 3.8898 15.3156L2.27816 16.6953C2.15752 16.7986 2.07117 16.9361 2.03061 17.0897C1.99004 17.2432 1.99718 17.4055 2.05106 17.5548L2.07304 17.6183C2.51502 18.8466 3.167 19.9821 4.01678 20.9808L4.06073 21.0321C4.16342 21.1528 4.30029 21.2396 4.45329 21.281C4.6063 21.3225 4.76826 21.3165 4.91783 21.2641L6.91529 20.5535C7.64297 21.1517 8.45368 21.6255 9.33032 21.9527L9.71613 24.0356C9.74506 24.1918 9.82082 24.3355 9.93335 24.4476C10.0459 24.5597 10.1898 24.6349 10.3461 24.6632L10.4121 24.6754C11.6943 24.9062 13.0075 24.9062 14.2898 24.6754L14.3557 24.6632C14.512 24.6349 14.656 24.5597 14.7685 24.4476C14.881 24.3355 14.9568 24.1918 14.9857 24.0356L15.3691 21.9624C16.2531 21.6304 17.0686 21.1591 17.8012 20.5584L19.784 21.2641C19.9335 21.317 20.0956 21.3231 20.2487 21.2817C20.4018 21.2402 20.5387 21.1532 20.6411 21.0321L20.6851 20.9808C21.5348 19.9772 22.1868 18.8466 22.6288 17.6183L22.6508 17.5548C22.7558 17.2521 22.6654 16.9126 22.4188 16.7002ZM12.3509 17.9749C9.97986 17.9749 8.05809 16.0531 8.05809 13.682C8.05809 11.311 9.97986 9.38919 12.3509 9.38919C14.722 9.38919 16.6438 11.311 16.6438 13.682C16.6438 16.0531 14.722 17.9749 12.3509 17.9749Z" fill="#805AD5"/>
</svg>
